<?xml version="1.0" ?><svg id="Layer_1" style="enable-background:new 0 0 429.918 429.918;" version="1.1" viewBox="0 0 429.918 429.918" xml:space="preserve" xmlns="http://www.w3.org/2000/svg" xmlns:xlink="http://www.w3.org/1999/xlink"><g><path d="M325.079,113.993h-35.3l7.277-37.286c1.295-6.635,5.625-12.048,11.582-14.479c5.738-2.341,12.04-1.776,17.29,1.55   l6.153,3.898c7.262,4.599,15.879,6.097,24.268,4.214c8.388-1.882,15.54-6.918,20.14-14.18l9.535-15.053l-33.339-21.119   c-19.257-12.199-43.252-14.098-64.19-5.081c-20.936,9.018-36.042,27.758-40.408,50.131l-9.252,47.403h-52.862l-9.251-47.402   c-4.366-22.374-19.472-41.114-40.408-50.132c-20.937-9.017-44.933-7.118-64.19,5.08L38.785,42.658l9.535,15.053   c9.496,14.99,29.418,19.461,44.408,9.965l6.153-3.898c5.247-3.324,11.547-3.891,17.286-1.551   c5.959,2.429,10.291,7.841,11.586,14.478l7.277,37.288h-32.664H0l11.906,20.578c18.641,32.22,53.262,52.299,90.46,52.504v111.259   l62.716,120.756h97.281l62.716-120.756V187.076h1.897c37.416,0,72.299-20.119,91.037-52.505l11.905-20.578H325.079z    M257.902,68.506c3.733-19.129,16.648-35.152,34.549-42.862c17.9-7.71,38.418-6.086,54.882,4.343l24.892,15.768l-4.184,6.604   c-3.17,5.005-8.1,8.477-13.882,9.774c-5.781,1.297-11.722,0.265-16.727-2.905l-6.153-3.898c-8.018-5.08-17.648-5.94-26.419-2.361   c-9.089,3.709-15.676,11.867-17.619,21.822l-7.651,39.202h-30.567L257.902,68.506z M137.568,74.789   c-1.943-9.958-8.533-18.117-17.626-21.823c-8.769-3.576-18.397-2.714-26.412,2.364l-6.153,3.897   c-10.333,6.545-24.064,3.464-30.609-6.869l-4.184-6.604l24.892-15.768c16.467-10.43,36.984-12.054,54.883-4.344   c17.9,7.71,30.816,23.733,34.55,42.862l8.877,45.487h-30.567L137.568,74.789z M315.079,123.993v53.083v0.997l-4.303,3.237   c-35.083,26.389-56.028,68.353-56.028,112.252v34.703h-81.456V294.01c0-43.9-20.945-85.864-56.028-112.253l-4.897-3.683v-0.997   v-53.083H315.079z M254.748,409.09h-81.456v-35.669l40.417,19.991l41.039-20.037V409.09z M254.748,362.247l-41.01,20.023   l-40.446-20.005v-23.999h81.456V362.247z M20.562,129.563l-3.223-5.57h85.027v53.074C68.726,176.861,37.421,158.704,20.562,129.563   z M112.366,190.612c31.909,24.556,50.925,63.093,50.925,103.397v34.256v40.209v25.471l-50.925-98.055V190.612z M264.748,392.803   v-24.311v-40.227v-34.703c0-40.053,18.781-78.361,50.332-102.936v105.265L264.748,392.803z M409.356,129.563   c-16.956,29.307-48.522,47.513-82.38,47.513h-1.897v-53.083h87.5L409.356,129.563z"/><circle cx="133.487" cy="250.629" r="10.375"/><circle cx="291.322" cy="250.629" r="10.375"/></g><g/><g/><g/><g/><g/><g/><g/><g/><g/><g/><g/><g/><g/><g/><g/></svg>