<?xml version="1.0" standalone="no"?>
<!DOCTYPE svg PUBLIC "-//W3C//DTD SVG 20010904//EN"
 "http://www.w3.org/TR/2001/REC-SVG-20010904/DTD/svg10.dtd">
<svg version="1.0" xmlns="http://www.w3.org/2000/svg"
 width="768.000000pt" height="1280.000000pt" viewBox="0 0 768.000000 1280.000000"
 preserveAspectRatio="xMidYMid meet">
<g transform="translate(0.000000,1280.000000) scale(0.100000,-0.100000)"
fill="#000000" stroke="none">
<path d="M3378 12486 c-141 -48 -228 -120 -267 -222 -11 -30 -34 -71 -50 -92
-64 -80 -103 -205 -117 -374 -4 -49 -10 -88 -14 -88 -4 0 -14 10 -22 22 -16
23 -38 18 -38 -10 0 -10 16 -80 35 -156 19 -77 35 -162 35 -191 0 -58 19 -129
55 -207 14 -29 25 -68 25 -86 0 -30 -5 -35 -46 -53 -70 -31 -220 -67 -335 -79
-155 -16 -202 -33 -264 -91 -108 -102 -143 -200 -200 -564 -43 -276 -45 -283
-123 -510 -44 -126 -90 -275 -102 -330 -12 -55 -39 -176 -60 -270 -46 -204
-70 -340 -70 -398 0 -85 100 -408 170 -548 23 -46 104 -196 181 -334 108 -195
142 -265 155 -320 9 -38 27 -110 42 -160 14 -49 26 -103 26 -120 l1 -30 -245
-6 c-135 -3 -406 -7 -602 -8 l-358 -1 -39 35 c-37 33 -42 35 -107 34 -38 -1
-55 -4 -39 -6 55 -7 62 -13 41 -29 -11 -8 -34 -15 -50 -15 -27 -2 -28 -2 -6
-6 56 -9 70 -14 70 -28 0 -8 -10 -17 -22 -19 -13 -3 -32 -7 -43 -9 -13 -3 -10
-5 10 -6 17 -1 36 -5 44 -10 21 -13 6 -39 -26 -44 -15 -2 0 -5 34 -6 60 -1 62
0 95 40 l34 41 510 9 c280 6 558 9 619 7 l109 -3 31 -79 c22 -57 41 -87 68
-111 l38 -33 -15 -88 c-8 -49 -20 -129 -26 -179 -6 -49 -26 -166 -45 -260 -63
-308 -85 -521 -85 -822 0 -110 -3 -154 -13 -160 -6 -4 -39 -13 -71 -20 -92
-19 -94 -24 -46 -127 43 -90 61 -156 42 -156 -5 0 -33 16 -62 36 -28 19 -53
34 -55 32 -2 -2 7 -28 20 -58 13 -30 29 -85 36 -121 11 -63 11 -68 -11 -96
-21 -29 -21 -32 -5 -57 14 -21 15 -32 7 -54 -18 -46 -23 -124 -10 -139 10 -12
8 -18 -9 -31 -20 -17 -43 -70 -43 -100 0 -11 3 -12 14 -3 10 8 16 9 21 1 3 -5
-1 -13 -9 -16 -9 -3 -16 -12 -16 -19 0 -6 -9 -20 -19 -29 -24 -22 -35 -64 -21
-81 13 -15 -3 -55 -20 -55 -18 0 -69 -64 -70 -86 0 -11 6 -26 12 -32 10 -10 8
-14 -10 -18 -12 -4 -22 -14 -22 -24 0 -10 -11 -25 -25 -34 -14 -9 -25 -24 -25
-34 0 -10 -7 -27 -15 -38 -8 -10 -15 -36 -15 -56 0 -26 -6 -40 -18 -47 -13 -7
-23 -32 -32 -83 -7 -40 -22 -84 -32 -97 -21 -28 -23 -47 -5 -54 9 -4 9 -7 0
-14 -7 -5 -13 -27 -13 -49 -3 -127 -8 -213 -14 -223 -5 -7 -9 -66 -11 -132 -2
-96 0 -119 11 -119 10 0 14 -13 14 -40 0 -25 -5 -40 -12 -40 -21 0 -23 -109
-3 -116 13 -5 15 -31 11 -195 -3 -104 -8 -194 -12 -201 -4 -7 -11 -46 -15 -88
-19 -190 -24 -223 -90 -520 -26 -118 -39 -236 -39 -355 0 -249 -36 -552 -78
-660 -33 -84 -36 -173 -9 -203 10 -11 22 -33 26 -48 7 -27 11 -29 62 -32 30
-2 92 2 139 9 47 7 119 13 161 14 42 2 85 8 97 14 11 6 35 11 52 11 17 0 32 6
34 13 2 6 11 37 20 67 21 73 23 147 7 315 -9 96 -11 180 -6 270 9 148 9 165 1
366 -5 133 -4 155 18 240 13 52 30 110 39 130 14 35 16 36 83 42 191 18 255 3
344 -82 49 -46 60 -63 60 -88 0 -18 4 -34 9 -37 5 -3 12 -18 16 -33 3 -14 15
-38 26 -51 10 -14 19 -31 19 -39 0 -8 11 -28 25 -45 14 -16 25 -36 25 -44 0
-7 13 -20 30 -29 16 -8 41 -35 55 -59 29 -50 62 -64 102 -44 32 16 38 27 54
101 10 47 10 76 0 147 -12 88 -12 89 17 172 17 46 42 110 56 143 32 75 32 109
1 171 -14 27 -25 52 -25 56 0 4 38 26 85 49 84 42 84 42 232 49 106 5 172 14
232 31 l84 23 111 -22 c61 -13 170 -27 241 -31 120 -9 139 -13 248 -55 66 -25
131 -46 146 -46 15 0 50 -7 77 -15 27 -8 88 -22 137 -31 48 -9 90 -20 92 -25
3 -5 -1 -23 -10 -40 -26 -49 -22 -126 8 -185 35 -69 67 -167 67 -204 0 -16 -9
-56 -19 -87 -49 -150 -54 -211 -17 -235 20 -13 73 -8 86 8 8 8 27 21 44 28 50
21 150 124 210 218 45 69 59 100 67 150 13 79 56 163 84 163 16 0 23 -12 37
-65 9 -36 16 -85 17 -110 1 -25 8 -81 16 -125 11 -54 15 -132 14 -245 -1 -91
4 -207 10 -259 15 -124 -8 -294 -48 -355 -20 -31 -26 -51 -25 -95 1 -87 9
-108 45 -116 16 -4 76 -4 132 0 79 5 113 3 152 -9 52 -16 260 -22 281 -8 14 9
60 142 68 198 8 57 -9 226 -44 434 -16 97 -35 243 -41 325 -9 128 -15 160 -39
215 -27 62 -46 129 -85 305 -9 44 -23 100 -31 125 -7 25 -16 72 -18 105 -3 33
-12 78 -20 100 -9 22 -15 57 -16 77 0 20 -5 49 -11 65 -6 15 -12 69 -14 118
-2 50 -7 128 -10 175 -6 69 -5 92 8 116 15 29 15 34 -3 67 -15 28 -17 42 -10
62 18 47 15 123 -5 145 -17 18 -17 25 -6 55 19 53 16 93 -8 126 -19 26 -21 35
-12 57 20 48 16 100 -9 134 -21 28 -22 35 -11 65 16 44 6 88 -26 113 -21 16
-26 29 -28 81 -3 53 -8 66 -34 93 -19 19 -31 42 -31 58 0 43 -36 114 -69 137
-23 16 -31 30 -31 52 0 43 -24 95 -54 114 -13 9 -26 26 -28 38 -2 12 -9 22
-17 22 -8 0 -16 6 -18 13 -3 6 1 12 7 12 21 0 1 51 -34 91 -26 28 -35 49 -40
91 -4 29 -16 67 -26 83 -24 36 -26 89 -5 129 19 36 20 30 -17 65 -31 28 -31
31 -15 49 24 26 21 64 -4 80 -20 13 -21 19 -15 80 4 36 22 106 41 156 19 50
33 92 31 93 -1 2 -24 -11 -50 -27 -76 -49 -82 -41 -35 52 19 37 27 64 21 70
-5 5 -41 12 -81 15 -62 5 -72 9 -76 27 -2 12 -9 153 -15 314 -12 320 -32 529
-80 810 -36 214 -39 295 -15 377 21 72 30 85 60 85 12 0 35 10 50 21 15 12 41
25 58 28 54 11 40 35 -24 41 -83 7 -90 16 -72 98 7 36 18 71 23 76 12 12 43
-15 71 -61 12 -19 24 -32 26 -29 9 8 -35 91 -61 115 l-23 22 25 77 c30 93 38
104 58 78 18 -25 19 -4 3 42 -9 27 -3 55 50 222 103 324 145 526 158 765 6
124 8 117 -114 435 -33 85 -81 214 -107 285 -26 72 -89 216 -140 320 -100 204
-125 264 -211 509 -85 239 -151 357 -251 445 -67 59 -130 84 -294 121 -167 37
-326 85 -337 102 -4 7 -6 26 -5 44 1 17 -2 44 -8 59 -11 30 0 45 69 94 17 12
31 30 31 40 0 10 11 38 25 62 17 31 21 49 15 59 -5 8 -7 31 -4 51 4 22 2 39
-5 43 -18 12 -12 36 9 36 22 0 25 12 10 40 -7 13 -7 21 0 25 6 4 8 14 5 24 -3
10 7 29 25 49 32 35 36 55 20 97 -8 20 -7 34 3 55 12 23 12 31 0 54 -11 20
-11 31 -3 41 17 20 -23 185 -46 185 -13 0 -34 50 -34 82 0 11 -7 44 -16 74
-13 46 -24 62 -66 95 -28 22 -64 43 -79 46 -16 3 -27 9 -24 13 7 11 -11 24
-90 63 -123 61 -217 71 -327 33z m550 -198 c7 -7 12 -19 12 -27 0 -11 -4 -10
-20 4 -21 19 -26 35 -12 35 4 0 13 -5 20 -12z m-18 -629 c0 -5 -4 -9 -10 -9
-5 0 -10 7 -10 16 0 8 5 12 10 9 6 -3 10 -10 10 -16z m461 -1648 c27 -78 210
-455 303 -625 202 -369 228 -441 227 -636 -1 -230 -28 -533 -61 -696 -8 -38
-18 -56 -40 -73 -31 -22 -42 -55 -15 -45 20 8 29 -19 15 -46 -8 -16 -15 -19
-24 -11 -19 16 -26 3 -15 -26 13 -35 11 -63 -5 -63 -14 0 -56 86 -56 117 -1
35 -26 78 -45 78 -11 0 -24 10 -30 22 -6 12 -23 34 -38 49 -15 15 -27 32 -27
38 0 12 -134 144 -166 162 -10 7 -18 20 -17 30 2 19 -21 39 -44 39 -6 0 -29
18 -51 40 -42 42 -120 99 -137 100 -5 0 -15 11 -21 24 -7 13 -26 33 -43 43
-62 39 -103 147 -105 272 -1 109 18 190 60 251 19 28 34 57 34 65 0 8 16 42
36 75 94 155 188 421 164 464 -6 12 -1 52 15 122 13 57 29 139 36 182 13 83
32 101 50 48z m-1844 -561 c24 -46 46 -99 49 -119 4 -20 18 -58 32 -84 17 -34
26 -70 29 -120 3 -40 13 -96 24 -125 10 -29 19 -70 19 -92 0 -21 9 -60 21 -87
11 -26 25 -86 31 -132 13 -110 -5 -327 -34 -403 -13 -34 -21 -82 -22 -135 -2
-62 -7 -87 -20 -102 -11 -12 -19 -44 -23 -92 -7 -87 -27 -142 -50 -137 -21 4
-83 109 -128 216 -71 169 -159 494 -195 714 -20 125 21 329 116 575 78 203 83
215 97 211 7 -3 31 -42 54 -88z m43 -2340 c0 -5 -4 -10 -10 -10 -5 0 -10 5
-10 10 0 6 5 10 10 10 6 0 10 -4 10 -10z m1467 -711 c26 -78 27 -79 9 -79 -18
0 -47 61 -54 113 -8 62 19 42 45 -34z m1278 -1669 c3 -5 1 -10 -4 -10 -6 0
-11 5 -11 10 0 6 2 10 4 10 3 0 8 -4 11 -10z m-2145 -182 c6 -24 15 -59 21
-78 5 -19 9 -67 9 -106 0 -83 -13 -96 -64 -66 -29 17 -31 22 -30 73 1 30 7 81
14 114 6 33 14 70 16 83 7 35 22 26 34 -20z m1390 -57 c0 -6 -4 -13 -10 -16
-5 -3 -10 1 -10 9 0 9 5 16 10 16 6 0 10 -4 10 -9z m60 -152 c8 -24 23 -58 33
-76 23 -42 22 -53 -5 -53 -34 0 -119 35 -129 53 -5 9 -7 34 -3 55 5 31 13 43
38 55 42 21 49 18 66 -34z m-1746 -339 c23 -10 75 -24 116 -31 41 -6 85 -15
97 -20 22 -8 22 -10 7 -51 -8 -23 -21 -49 -28 -58 -8 -8 -22 -42 -31 -75 -46
-160 -50 -170 -75 -181 -14 -7 -78 -38 -144 -68 -65 -31 -121 -54 -124 -51 -7
6 67 311 104 428 13 43 24 89 24 103 0 29 3 29 54 4z m1844 -2 c5 -7 31 -83
57 -168 26 -85 56 -185 68 -223 11 -37 17 -70 14 -74 -4 -3 -44 8 -89 26 -46
17 -113 38 -150 45 -37 8 -71 17 -76 20 -5 3 -13 30 -16 60 -4 29 -14 62 -21
72 -22 30 -18 52 14 69 38 19 151 130 151 147 0 15 19 38 31 38 4 0 11 -6 17
-12z m253 -1501 c-8 -8 -11 -7 -11 4 0 20 13 34 18 19 3 -7 -1 -17 -7 -23z"/>
</g>
</svg>
